<?xml version="1.0" encoding="UTF-8"?>
<svg width="1200pt" height="1200pt" version="1.1" viewBox="0 0 1200 1200" xmlns="http://www.w3.org/2000/svg">
 <path d="m261.44 544.83c9.8242 65.746 65.746 112.6 129.23 115.62-15.871 58.945-54.41 82.371-101.27 95.977-4.5352 1.5117-3.7773 6.0469-3.7773 6.0469l7.5586 46.855s0.75391 3.7773 6.8008 3.0234c161.72-18.137 271.3-141.32 250.9-290.95-18.895-103.54-99.758-143.59-174.57-133.01-74.816 12.09-126.21 81.617-114.87 156.43zm516.15 115.62c-15.113 58.945-55.168 82.371-101.27 95.977-4.5352 1.5117-3.7773 6.0469-3.7773 6.0469l6.8008 46.855s0.75391 3.7773 6.8008 3.0234c161.72-17.387 270.55-140.57 251.65-290.2-19.648-104.29-101.27-144.34-175.32-133.76-74.816 12.09-126.2 81.617-114.11 156.43 9.8242 66.504 64.992 113.36 129.23 115.62z" fill="#ec4645"/>
</svg>
